<svg id="Capa_1" data-name="Capa 1" xmlns="http://www.w3.org/2000/svg" viewBox="0 0 122.44 85.04">
            <defs><style>.cls-1{fill:#ededed;}.cls-2{fill:#64c3d2;}.cls-3{fill:#5895cf;}.cls-4{fill:#81bae6;}.cls-5{fill:#e5e1f1;}.cls-6{fill:#f8aa21;}.cls-7{fill:#c4c4c4;}.cls-8{fill:#fff;}.cls-9{fill:#9385be;}.cls-10{fill:#cfcece;}</style></defs><title>cartoon-system2</title><path class="cls-1" d="M59.29,29.34a19.08,19.08,0,0,1,1-2.95,17.5,17.5,0,0,1,5.36-6.89,22.11,22.11,0,0,1,4.17-2.58,23.82,23.82,0,0,1,4.09-1.49,34.24,34.24,0,0,1,5-.92A36.8,36.8,0,0,1,89.38,15a43.51,43.51,0,0,1,8.44,2.49,57.87,57.87,0,0,1,6.71,3.29c1.5.85,3,1.78,4.4,2.71,1.28.81,2.52,1.68,3.74,2.57,2,1.44,3.94,3,5.91,4.45,0,0,0,.07.06.1-.22.12-.45.22-.66.35a.35.35,0,0,1-.52-.08c-.18-.2-.38-.39-.58-.58a.76.76,0,0,0-1.13,0q-.93.9-1.83,1.83a.75.75,0,0,0,0,1.13c.19.21.4.41.6.61a.26.26,0,0,1,0,.39,7,7,0,0,0-.81,1.88.45.45,0,0,1-.56.38,5,5,0,0,0-.67,0,.8.8,0,0,0-.86.86c0,.53,0,1.05,0,1.57l-.52,0H70.81c-.7,0-.7,0-.39-.62a3.26,3.26,0,0,0,.48-1.63.63.63,0,0,0-1.18-.31,2,2,0,0,0-.25.66,7.22,7.22,0,0,0-.16,1.67c0,.08,0,.19-.09.22s-.14-.08-.18-.16a7.21,7.21,0,0,0-.36-.74,1.48,1.48,0,0,1-.07-1.74,4.32,4.32,0,0,0,.57-2.26.65.65,0,0,0-.59-.7.62.62,0,0,0-.71.53,3.12,3.12,0,0,0-.1,1.14c0,.52.1,1,.16,1.65a19.34,19.34,0,0,0-1.46-2.1c-.08-.1,0-.2,0-.32.09-.46.18-.93.23-1.4a3.31,3.31,0,0,0-.17-1.76.6.6,0,0,0-.65-.39.59.59,0,0,0-.56.56,2.12,2.12,0,0,0,0,.71,17.49,17.49,0,0,0,.5,1.75l0,0a3.23,3.23,0,0,0-.44-.39,2.1,2.1,0,0,1-1-2.06,3.62,3.62,0,0,0-.55-2A.62.62,0,0,0,63,29a.6.6,0,0,0-.39.69,3.49,3.49,0,0,0,.5,1.31,10.66,10.66,0,0,1,.65,1.08l0,0-.21-.07a5.54,5.54,0,0,1-2.52-1.73A2.13,2.13,0,0,0,59.29,29.34Zm38.55-5.4H91.22c-.54,0-.58,0-.58.57V33c0,.79-.16.91.83.87.26,0,.32.09.31.33,0,.47,0,.94,0,1.42,0,.22,0,.31.26.15.63-.44,1.3-.84,1.92-1.29a3,3,0,0,1,1.93-.62c2.88,0,5.76,0,8.64,0,.47,0,.55-.07.55-.53v-8.9c0-.46-.08-.54-.55-.54Zm-16.46-.58c0,.46,0,.92,0,1.38,0,.17,0,.31.26.18L84,23.55c.21-.12.18-.21,0-.31L81.65,21.9c-.19-.11-.28-.11-.28.15C81.38,22.49,81.38,22.92,81.38,23.36Z" transform="translate(-22.44 -14.35)"/><path class="cls-1" d="M37.91,57.21c0-.26.2-.36.36-.48A55.11,55.11,0,0,1,44.17,53l.32-.19c0,.12,0,.24,0,.37V60.2a2.43,2.43,0,0,0,0,.27.46.46,0,0,0,.61.34c.6-.33,1.19-.68,1.78-1l2.87-1.58a.52.52,0,0,0,.34-.54q0-4.8,0-9.6l4.63,3v-.73c0-1,0-2,0-3.07,0-.27.09-.38.37-.36s.8,0,1.19,0a.66.66,0,0,0,.78-.73c0-.31,0-.62,0-.93H83.84c.36,0,.46.1.46.46,0,6.51,0,13,0,19.52,0,.52,0,.54-.52.54q-16.6,0-33.21,0c-.39,0-.48-.1-.48-.48,0-1.71,0-3.42,0-5.13,0-.09,0-.22-.06-.27s-.16.08-.23.14c-.95.82-1.93,1.6-2.93,2.36a6.42,6.42,0,0,0-.93.6,1.71,1.71,0,0,1-1,.34c-.34,0-.38.1-.38.4q0,11.16,0,22.33a1.39,1.39,0,0,0,.41,1.26c-.46.21-.47.21-.45-.21.06-.94-.06-1.89,0-2.83A22.45,22.45,0,0,0,44,79.55c-.52-2.85-1.15-5.68-1.8-8.51.16-.13.08-.27,0-.41a14.55,14.55,0,0,1-.46-2.08,52.49,52.49,0,0,1-.44-6.39c0-.12,0-.27-.05-.36s-.06-.24,0-.36c.36-.61.71-1.22,1.08-1.83.12-.21.15-.36-.1-.52-.55-.34-1.09-.7-1.63-1.06A4.87,4.87,0,0,0,37.91,57.21ZM73.14,55.6a6,6,0,1,0-6.07,5.93A6,6,0,0,0,73.14,55.6Z" transform="translate(-22.44 -14.35)"/><path class="cls-2" d="M57.06,45.28c0,.31,0,.62,0,.93a.66.66,0,0,1-.78.73c-.39,0-.79,0-1.19,0s-.37.09-.37.36c0,1,0,2.05,0,3.07v.73l-4.63-3-1.49-1a.71.71,0,0,0-.42-.14l-1.31,0c-.79,0-1.57,0-2.36,0l-.49,0H28.61c-.71,0-.89-.17-.89-.87V27.55c0-.7.2-.9.91-.9H56.09c.77,0,1,.18,1,1V38.25c0,.12,0,.25,0,.37v6.66Zm-20-8.49a1.67,1.67,0,0,0-1.7-1.67,1.72,1.72,0,0,0-1.65,1.69,1.69,1.69,0,0,0,1.71,1.66A1.65,1.65,0,0,0,37.08,36.79Zm7,0a1.68,1.68,0,0,0-1.64-1.68,1.68,1.68,0,1,0,0,3.35A1.66,1.66,0,0,0,44,36.8Zm3.65,0a1.63,1.63,0,0,0,1.66,1.69A1.64,1.64,0,0,0,51,36.8a1.66,1.66,0,1,0-3.31,0Z" transform="translate(-22.44 -14.35)"/><path class="cls-3" d="M134.5,68a8.39,8.39,0,0,1,.75,3,59.74,59.74,0,0,1-.11,10.53,1.32,1.32,0,0,0,.09.62q2.18,5.63,4.33,11.27c.08.21.23.43,0,.63l-2.34,1.08c-.46.16-.46.16-.74-.36l-.05-.09h0a4.61,4.61,0,0,0-.43-1l-.14-.39c-1.43-3.21-2.87-6.41-4.24-9.65a6.73,6.73,0,0,1-.54-1.86c-.21-2-.21-3.94-.24-5.93a1.19,1.19,0,0,0-.09.44c-.1,1.57-.21,3.14-.3,4.7a10.5,10.5,0,0,0-.07,1.94c.12,1.06.23,2.11.35,3.16l.75,6.84a.36.36,0,0,0,0,.27l0,.11a12.06,12.06,0,0,0,.18,1.8c0,.19,0,.39-.25.46l-2.34.49c-.52,0-.39-.4-.51-.66l-.3-1.63c-.22-1.19-.45-2.37-.65-3.56-.07-.36-.18-.5-.58-.5H107.79a.82.82,0,0,1-.51-.07,4.73,4.73,0,0,0-1.76-2.93,5.29,5.29,0,0,0-2-.91.79.79,0,0,1,.4,0h5c.84,0,.84,0,.84-.84l.07,0h11.44c.09,0,.07-.06.06-.11s0-.17,0-.26v-17c0-.09,0-.18,0-.26s.16-.18.28-.22a4.7,4.7,0,0,1,2.11,0c0,.1,0,.19,0,.29V86.3a2.83,2.83,0,0,0,0,.29l0,.15c0,.26-.41.44-.27.65s.46.2.71.3l.17.06,3,1.09c0-.15,0-.26,0-.37-.23-1.33-.47-2.67-.69-4a21.64,21.64,0,0,1-.38-4.69c.16-2.77.53-5.53,1-8.28.18-1.1.32-2.21.59-3.31Z" transform="translate(-22.44 -14.35)"/><path class="cls-3" d="M42.2,71c.65,2.83,1.28,5.66,1.8,8.51a22.45,22.45,0,0,1,.45,4.76c0,.94.08,1.89,0,2.83,0,.42,0,.42.45.21a1.39,1.39,0,0,1-.41-1.26q0-11.18,0-22.33c0-.3,0-.42.38-.4a1.71,1.71,0,0,0,1-.34,6.42,6.42,0,0,1,.93-.6q0,11.07,0,22.14c0,.36.08.45.45.45H67.07c.65.25,1.26.62,1.93.82H62.92c-1,0-1,0-1,1,0,.22.07.31.3.3.45,0,.91,0,1.37,0v.21s0,.06,0,.09l0,.6v.29l0,1.42H44.9c-.34,0-.44.09-.44.44,0,1.24,0,2.49,0,3.74a2.48,2.48,0,0,0,0,.77c0,.23,0,.34-.3.34l-2,0c-.18,0-.24,0-.26-.22s-.08-.62-.12-.92c-.15-1.29-.31-2.59-.45-3.88,0-.25-.1-.31-.34-.31-.83,0-1.66,0-2.5,0,.79-.36,1.62-.61,2.43-.93.14-.05.28-.08.25-.29C41,88,41,87.45,40.88,86.89c-.09-.83-.17-1.66-.27-2.49a11.06,11.06,0,0,0-.33-2.06c-.55-1.63-1.08-3.26-1.62-4.9-.08-.24-.15-.48-.23-.72a63.56,63.56,0,0,1-.54,7.7c-.26,1.3-.52,2.6-.77,3.91-.31,1.58-.6,3.15-.89,4.73a.19.19,0,0,0,0,.19l0,.22a12.48,12.48,0,0,0-.35,1.72c0,.39-.26.38-.53.34-.65-.11-1.29-.22-2-.27h-.14L33.11,95v-.22a5.92,5.92,0,0,0,.07-1.11h0l0,0a.13.13,0,0,0,0-.06l0-.53V93c.16-2.49.28-5,.49-7.46a43.26,43.26,0,0,0,0-6.83l0-.23v-.14l-.15-2.87a25.15,25.15,0,0,1-.1-3.36,9.33,9.33,0,0,0,6.34,0A23.43,23.43,0,0,0,42.2,71Z" transform="translate(-22.44 -14.35)"/><path class="cls-3" d="M57.06,41.61V39H68.35c.42,0,.42,0,.23-.39s-.26-.54-.39-.8c-.23-.44-.23-.43-.67-.23a6.78,6.78,0,0,1-2.59.79c-.48,0-.73-.18-.78-.53s.15-.65.59-.78a3.69,3.69,0,0,1,1.44-.1c.53.05,1.06.12,1.65.19a17.84,17.84,0,0,0-1.56-2.33c-.12-.14-.23,0-.33,0a11.06,11.06,0,0,1-2.1.79,1.9,1.9,0,0,1-1,0,.61.61,0,0,1-.29-1,1,1,0,0,1,.55-.3,5.62,5.62,0,0,1,1.83,0l1,.13a9.47,9.47,0,0,0-1.61-1.52c-.12-.09-.21,0-.31,0-.46.19-.92.4-1.39.56a3.81,3.81,0,0,1-1.57.29.61.61,0,0,1-.66-.53.66.66,0,0,1,.5-.73,3.38,3.38,0,0,1,1.22-.14c.53,0,1,.13,1.58.14a4.74,4.74,0,0,0-1.46-.72,15.89,15.89,0,0,1-2-.66,3.34,3.34,0,0,1-1.3-.85c-.16-.49-.1-.66.36-1a2.13,2.13,0,0,1,1.76,1,5.54,5.54,0,0,0,2.52,1.73l.21.07s0,.07.07,0l-.05,0A10.66,10.66,0,0,0,63.15,31a3.49,3.49,0,0,1-.5-1.31A.6.6,0,0,1,63,29a.62.62,0,0,1,.78.27,3.62,3.62,0,0,1,.55,2,2.1,2.1,0,0,0,1,2.06,3.23,3.23,0,0,1,.44.39s0,.08.06.05,0-.06,0-.07a17.49,17.49,0,0,1-.5-1.75,2.12,2.12,0,0,1,0-.71.59.59,0,0,1,.56-.56.6.6,0,0,1,.65.39,3.31,3.31,0,0,1,.17,1.76c-.05.47-.14.94-.23,1.4,0,.12,0,.22,0,.32a19.34,19.34,0,0,1,1.46,2.1c-.06-.61-.12-1.13-.16-1.65a3.12,3.12,0,0,1,.1-1.14.62.62,0,0,1,.71-.53.65.65,0,0,1,.59.7,4.32,4.32,0,0,1-.57,2.26,1.48,1.48,0,0,0,.07,1.74,7.21,7.21,0,0,1,.36.74c0,.08.07.18.18.16s.09-.14.09-.22a7.22,7.22,0,0,1,.16-1.67,2,2,0,0,1,.25-.66.63.63,0,0,1,1.18.31,3.26,3.26,0,0,1-.48,1.63c-.31.63-.31.62.39.62h40.33l.52,0,3,0c.87,0,1.73,0,2.6,0l.45,0c1.58,0,3.16,0,4.74,0a1.16,1.16,0,0,1,1.25,1.26v.82c0,.76,0,1.52,0,2.28,0,1.92,0,3.83,0,5.75a1.51,1.51,0,0,0,0,.52V61.94a1.31,1.31,0,0,0,.07.52c.35.81.7,1.62,1.06,2.43a1.89,1.89,0,0,0,.26.6,4.65,4.65,0,0,1,.2.52c.09.35.29.45.64.44a5.16,5.16,0,0,1,2.07.16c0,.12,0,.16-.12.19l-.3,0h-.52a.21.21,0,0,0-.19,0h-.72a.7.7,0,0,0-.53,0h-.15c-.1-.2-.21-.4-.3-.61-.51-1.2-1-2.4-1.51-3.6-.12-.3-.27-.47-.63-.43a8.22,8.22,0,0,1-1.11,0c-.2,0-.41.08-.57-.09q0-10.2,0-20.41c0-.05,0-.08-.06-.08H57.06Z" transform="translate(-22.44 -14.35)"/><path class="cls-4" d="M117.31,39c-.87,0-1.73,0-2.6,0l-3,0c0-.52,0-1,0-1.57a.8.8,0,0,1,.86-.86,5,5,0,0,1,.67,0,.45.45,0,0,0,.56-.38,7,7,0,0,1,.81-1.88.26.26,0,0,0,0-.39c-.2-.2-.41-.4-.6-.61a.75.75,0,0,1,0-1.13q.9-.93,1.83-1.83a.76.76,0,0,1,1.13,0c.2.19.4.38.58.58A.35.35,0,0,0,118,31c.21-.13.44-.23.66-.35.47-.16.94-.32,1.41-.46.15,0,.16-.14.16-.25,0-.31,0-.62,0-.93a.73.73,0,0,1,.75-.76c.89,0,1.77,0,2.66,0a.78.78,0,0,1,.77.76c0,.39-.17.89.08,1.16s.72.28,1.08.43a5,5,0,0,1,.87.43.53.53,0,0,0,.84-.14,2.94,2.94,0,0,1,.39-.4.79.79,0,0,1,1.14,0c.62.59,1.23,1.19,1.83,1.82a.81.81,0,0,1-.06,1.2c-.24.25-.62.44-.68.76s.26.62.39.94a9.1,9.1,0,0,1,.45,1.3c.06.21.15.29.36.28a7.66,7.66,0,0,1,.83,0,.74.74,0,0,1,.8.79q0,1.29,0,2.58a.78.78,0,0,1-.8.81h-1.08c-.13.06-.12.2-.16.31-.18.44-.34.89-.52,1.32s-.46.58-.38.86.41.48.64.71a.77.77,0,0,1,0,1.23c-.57.58-1.14,1.15-1.72,1.72a.78.78,0,0,1-1.24,0c-.19-.18-.38-.36-.56-.56a.33.33,0,0,0-.46-.07,8.2,8.2,0,0,1-2,.81.25.25,0,0,0-.22.31c0,.31,0,.62,0,.94s-.08.49-.38.57c0-1.92,0-3.83,0-5.75a4.85,4.85,0,0,0,2.62-7.05,4.63,4.63,0,0,0-3-2.27A4.87,4.87,0,0,0,117.31,39Z" transform="translate(-22.44 -14.35)"/><path class="cls-1" d="M123.8,49.1c.3-.08.37-.31.38-.57s0-.63,0-.94a.25.25,0,0,1,.22-.31,8.2,8.2,0,0,0,2-.81.33.33,0,0,1,.46.07c.18.2.37.38.56.56a.78.78,0,0,0,1.24,0c.58-.57,1.15-1.14,1.72-1.72a.77.77,0,0,0,0-1.23c-.23-.23-.56-.43-.64-.71s.26-.56.38-.86.34-.88.52-1.32c0-.11,0-.25.16-.31a2.24,2.24,0,0,0,.47.87A18.26,18.26,0,0,1,133,45.7a14.37,14.37,0,0,1,.5,4.56c0,.52-.1,1-.17,1.55,0,.12-.05.28-.22.32l-.15-.1a2.19,2.19,0,0,0-3.21.79,1,1,0,0,0-.11.87,3.39,3.39,0,0,1,.29-.38c.11-.12.23-.17.38,0a4,4,0,0,0,1.44.85,1.58,1.58,0,0,1,1,1.52c0,.14-.05.3.07.42v1.31a4.06,4.06,0,0,1-1.36.76c-.42.09-.59,0-.64-.43,0-.23-.12-.27-.31-.23a2.09,2.09,0,0,0-1.37.76,19.64,19.64,0,0,0-1.86,3.28c-.09.2-.27.42.06.59.07,0,0,.14,0,.21a3.5,3.5,0,0,0,.29,1.56,4.73,4.73,0,0,1,.43,1.43c0,.16.06.21.25.22,1.45.07,2.91,0,4.37,0,.55,0,.55,0,.47-.58-.12-.85-.14-1.71-.21-2.56,0-.21,0-.29.27-.29l2.2-.07c0,1,0,1.91,0,2.86a7.1,7.1,0,0,1-.34,2.19,1,1,0,0,1-.55.61,14,14,0,0,1-2.66-.28c-1.28-.23-2.52-.59-3.79-.84a5.16,5.16,0,0,0-2.07-.16c-.35,0-.55-.09-.64-.44a4.65,4.65,0,0,0-.2-.52c.18,0,.41.05.5-.16s-.21-.08-.21-.22.37-.07.44-.24a5.74,5.74,0,0,0,.55-1.33l0,0h0l0,0c-.56.4-1,.93-1.54,1.35-.36-.81-.71-1.62-1.06-2.43a1.31,1.31,0,0,1-.07-.52V49.62A1.51,1.51,0,0,1,123.8,49.1Z" transform="translate(-22.44 -14.35)"/><path class="cls-5" d="M35.81,95.19a12.48,12.48,0,0,1,.35-1.72,17.9,17.9,0,0,1,1.94-.15,1.14,1.14,0,0,0,.7-.16,4.24,4.24,0,0,0,2.92.83c0,.3.09.61.12.92s.08.23.26.22l2,0c.25,0,.3-.11.3-.34a2.48,2.48,0,0,1,0-.77H61.92c0,.3,0,.6,0,.9s.11.46.47.46c6.49,0,13,0,19.47,0,6.76-.06,13.53,0,20.3,0A5.27,5.27,0,0,0,106,93.93c.1.08.22,0,.33,0,7.32-.08,14.65.17,22-.12l.3,1.63a1,1,0,0,0-.66-.06,22.33,22.33,0,0,1-2.45.12c-1.6.08-3.2.15-4.81.19-.78,0-1.56,0-2.35.06-1.9.1-3.8.09-5.7.16-1.2.05-2.39,0-3.58.07-1.62.11-3.24,0-4.86.08s-3.16,0-4.74.06c-9.11.16-18.23.06-27.34,0-2.21,0-4.43,0-6.65-.07-1.64-.07-3.29,0-4.93-.07C59.35,96,58.2,96.09,57,96c-1-.08-2,0-3-.07s-1.82,0-2.72-.07c-1.47-.09-2.94-.06-4.4-.16a17.26,17.26,0,0,1-2.38-.13c-.21,0-.33,0-.31.28s0,.25,0,.38a9.67,9.67,0,0,1-1.94.08,2.61,2.61,0,0,0-.06-.62c0-.13-.09-.2-.22-.2a8.77,8.77,0,0,1-1.15-.07c-1.08-.06-2.16-.06-3.23-.17a8.06,8.06,0,0,1-1.48-.12A.42.42,0,0,0,35.81,95.19Z" transform="translate(-22.44 -14.35)"/><path class="cls-6" d="M42.2,71a23.43,23.43,0,0,1-2.44,1,9.33,9.33,0,0,1-6.34,0c0-1.33,0-2.66,0-4,0-1.55,0-3.09-.1-4.63a1,1,0,0,0-.58-1,8.84,8.84,0,0,1-.89-.55c-.15-.1-.11-.22,0-.36A30.42,30.42,0,0,1,33.72,58a1,1,0,0,1,.6-.47,3.24,3.24,0,0,1,1.8-.12,2.7,2.7,0,0,0,1.79-.15,4.87,4.87,0,0,1,2.74.82c.54.36,1.08.72,1.63,1.06.25.16.22.31.1.52-.37.61-.72,1.22-1.08,1.83-.07.12-.16.22,0,.36s.05.24.05.36a52.49,52.49,0,0,0,.44,6.39,14.55,14.55,0,0,0,.46,2.08C42.28,70.77,42.36,70.91,42.2,71Z" transform="translate(-22.44 -14.35)"/><path class="cls-1" d="M58.93,30.3a3.34,3.34,0,0,0,1.3.85,15.89,15.89,0,0,0,2,.66,4.74,4.74,0,0,1,1.46.72c-.53,0-1.05-.14-1.58-.14a3.38,3.38,0,0,0-1.22.14.66.66,0,0,0-.5.73.61.61,0,0,0,.66.53,3.81,3.81,0,0,0,1.57-.29c.47-.16.93-.37,1.39-.56.1,0,.19-.1.31,0A9.47,9.47,0,0,1,66,34.45l-1-.13a5.62,5.62,0,0,0-1.83,0,1,1,0,0,0-.55.3.61.61,0,0,0,.29,1,1.9,1.9,0,0,0,1,0,11.06,11.06,0,0,0,2.1-.79c.1-.05.21-.15.33,0a17.84,17.84,0,0,1,1.56,2.33c-.59-.07-1.12-.14-1.65-.19a3.69,3.69,0,0,0-1.44.1c-.44.13-.65.41-.59.78s.3.54.78.53a6.78,6.78,0,0,0,2.59-.79c.44-.2.44-.21.67.23.13.26.27.53.39.8s.19.39-.23.39H57.06v-.37c.08,0,.12,0,.14-.14.28-1.3.6-2.6.86-3.9s.54-2.66.85-4C58.93,30.5,58.92,30.4,58.93,30.3Z" transform="translate(-22.44 -14.35)"/><path class="cls-6" d="M135.4,62.07l-2.2.07c-.22,0-.28.08-.27.29.07.85.09,1.71.21,2.56.08.56.08.58-.47.58-1.46,0-2.92,0-4.37,0-.19,0-.24-.06-.25-.22a4.73,4.73,0,0,0-.43-1.43,3.5,3.5,0,0,1-.29-1.56c0-.07,0-.17,0-.21-.33-.17-.15-.39-.06-.59a19.64,19.64,0,0,1,1.86-3.28,2.09,2.09,0,0,1,1.37-.76c.19,0,.29,0,.31.23.05.43.22.52.64.43a4.06,4.06,0,0,0,1.36-.76l1.51.4a3.16,3.16,0,0,1,.66.55,9.15,9.15,0,0,1,.54,3.36C135.49,61.82,135.53,62,135.4,62.07Z" transform="translate(-22.44 -14.35)"/><path class="cls-1" d="M25.82,57.85a3.47,3.47,0,0,1-3.38-3.54A3.59,3.59,0,0,1,26,51a3.48,3.48,0,0,1,3.34,3.53A3.4,3.4,0,0,1,25.82,57.85ZM25,54.44v1.27c0,.24.06.33.3.2l2.16-1.24c.24-.14.27-.26,0-.41L25.27,53c-.24-.14-.33-.07-.33.21S25,54,25,54.44Z" transform="translate(-22.44 -14.35)"/><path class="cls-3" d="M44.51,47c.79,0,1.57,0,2.36,0,0,2.9,0,5.79,0,8.69,0,1.38,0,2.76,0,4.14-.59.34-1.18.69-1.78,1a.46.46,0,0,1-.61-.34,2.43,2.43,0,0,1,0-.27V53.14c0-.13,0-.25,0-.37,0-1.69,0-3.38,0-5.07Z" transform="translate(-22.44 -14.35)"/><path class="cls-1" d="M138,71.43a3.43,3.43,0,1,1,3.39,3.47A3.41,3.41,0,0,1,138,71.43Zm5.29,0L140.71,70c-.18-.1-.22,0-.22.16V72.8c0,.15,0,.31.22.19Z" transform="translate(-22.44 -14.35)"/><path class="cls-1" d="M31.83,61.85a8.84,8.84,0,0,0,.89.55,1,1,0,0,1,.58,1c.08,1.54.1,3.08.1,4.63,0,1.33,0,2.66,0,4a25.15,25.15,0,0,0,.1,3.36l.15,2.87A4.56,4.56,0,0,1,33,76.87a19.58,19.58,0,0,1-1.12-3.81,21.8,21.8,0,0,1-.32-5A7,7,0,0,1,31.68,67a.68.68,0,0,0-.29-.61A2.11,2.11,0,0,1,31,64C31.21,63.26,31.52,62.55,31.83,61.85Z" transform="translate(-22.44 -14.35)"/><path class="cls-5" d="M137.79,98a.8.8,0,0,0,.56.15c1.32,0,2.63.09,4,.16.63,0,1.25.14,1.88.22.09,0,.22,0,.23.14s-.12.13-.2.17a3.67,3.67,0,0,1-1.17.19l-2.6.18c-3.95.21-7.9.12-11.84.12-1.58,0-3.16-.05-4.74-.15a20.27,20.27,0,0,1-2.8-.28H121c-.12-.07-.36,0-.35-.2s.23-.15.37-.17c1.12-.18,2.24-.23,3.37-.31s2.14,0,3.2-.12l-.33.24a.42.42,0,0,0-.23.44c0,.21.21.26.38.3a1.3,1.3,0,0,0,.52,0l3.19-.41c.6-.07.6-.06.67-.66.13.11.29.07.43.07h3.59c.11.42.42.42.74.34S137.37,98.17,137.79,98Z" transform="translate(-22.44 -14.35)"/><path class="cls-5" d="M47.17,98.19a43.23,43.23,0,0,1,5.08.37c.12,0,.28,0,.29.18s-.18.16-.28.18a8.58,8.58,0,0,1-1.1.16l-2.9.17c-4.15.24-8.29.11-12.44.12-1.27,0-2.55-.08-3.83-.15a22,22,0,0,1-2.8-.28l-.26-.07c-.07,0-.15,0-.15-.13s.1-.1.17-.12a5.47,5.47,0,0,1,1.2-.2,26.09,26.09,0,0,1,2.79-.16c0,.2.2.19.34.21l2.37.36c.62.1.79-.12.56-.7l.56,0H42.3c.1.17-.16.5.26.53a18.08,18.08,0,0,0,3.45,0A1.71,1.71,0,0,0,47.17,98.19Z" transform="translate(-22.44 -14.35)"/><path class="cls-3" d="M36,56.59c-.1-.05-.13-.18-.26-.19s-.26-.13-.28-.32a.71.71,0,0,0-.36-.53.67.67,0,0,1-.42-.69c.13-.57-.16-1.1-.09-1.66a1.38,1.38,0,0,1,1-1.19.75.75,0,0,0,.25-.13c.07-.05.18-.12.24-.1.67.31,1.16-.19,1.71-.4a.88.88,0,0,1,1.28,1,5.48,5.48,0,0,0,0,.81,1.21,1.21,0,0,1-.62,1l-.76.16c-.15,0-.31.12-.29.29.05.52-.27,1-.23,1.5,0,.12-.08.2-.2.24Z" transform="translate(-22.44 -14.35)"/><path class="cls-3" d="M135,58.33a3.16,3.16,0,0,0-.66-.55,2.71,2.71,0,0,1,0-2,2.42,2.42,0,0,0-.16-2.05c-.23-.42-.26-.93-.54-1.35-.06-.08,0-.13.07-.16a2.63,2.63,0,0,1,1.25-.34,1.49,1.49,0,0,1,1.36,1.56,10.93,10.93,0,0,0,.07,2c.09.42.19.85.25,1.28A1.34,1.34,0,0,1,135,58.33Z" transform="translate(-22.44 -14.35)"/><path class="cls-3" d="M132.78,56.07c-.12-.12-.06-.28-.07-.42a1.58,1.58,0,0,0-1-1.52,4,4,0,0,1-1.44-.85c-.15-.14-.27-.09-.38,0a3.39,3.39,0,0,0-.29.38,1,1,0,0,1,.11-.87,2.19,2.19,0,0,1,3.21-.79l.15.1.11.11.06.08a4,4,0,0,1,.53,1.6A2.54,2.54,0,0,1,132.78,56.07Z" transform="translate(-22.44 -14.35)"/><path class="cls-7" d="M47.17,98.19a1.71,1.71,0,0,1-1.16.42,18.08,18.08,0,0,1-3.45,0c-.42,0-.16-.36-.26-.53v-1.8a9.67,9.67,0,0,0,1.94-.08,4,4,0,0,0,2.1,1A.88.88,0,0,1,47.17,98.19Z" transform="translate(-22.44 -14.35)"/><path class="cls-7" d="M36.21,98.13c.23.58.06.8-.56.7l-2.37-.36c-.14,0-.31,0-.34-.21l.33-2.15,1.93.21c.07.72.12,1.45.95,1.76C36.18,98.09,36.19,98.11,36.21,98.13Z" transform="translate(-22.44 -14.35)"/><path class="cls-6" d="M128.05,66.61c1.27.25,2.51.61,3.79.84a14,14,0,0,0,2.66.28V68l-6.74.16.17-1.38C128,66.77,128.09,66.73,128.05,66.61Z" transform="translate(-22.44 -14.35)"/><path class="cls-7" d="M137.79,98c-.42.13-.84.29-1.26.41s-.63.08-.74-.34a3.18,3.18,0,0,1,1.63-1.3,1.53,1.53,0,0,0,1.49-.31c.41-.26.62-.7,1-1a3.23,3.23,0,0,1,.5,1.23.35.35,0,0,1-.28.49C139.33,97.47,138.56,97.76,137.79,98Z" transform="translate(-22.44 -14.35)"/><path class="cls-7" d="M131.77,98c-.07.6-.07.59-.67.66l-3.19.41a1.3,1.3,0,0,1-.52,0c-.17,0-.34-.09-.38-.3a.42.42,0,0,1,.23-.44l.33-.24a9.09,9.09,0,0,1,1.24-.43,1.58,1.58,0,0,0,1.81-.12,10.46,10.46,0,0,0,.89-.64,2.46,2.46,0,0,1,.24.87V98Z" transform="translate(-22.44 -14.35)"/><path class="cls-5" d="M139.89,95.49c-.36.31-.57.75-1,1a1.53,1.53,0,0,1-1.49.31,1.14,1.14,0,0,1,.1-.19,1.09,1.09,0,0,0-.34-1.44l2.34-1.08A8.65,8.65,0,0,0,139.89,95.49Z" transform="translate(-22.44 -14.35)"/><path class="cls-7" d="M131.51,96.94a10.46,10.46,0,0,1-.89.64,1.58,1.58,0,0,1-1.81.12s0,0,0-.06c.55-.5.6-.78.25-1.49l2.34-.49Z" transform="translate(-22.44 -14.35)"/><path class="cls-5" d="M36,56.59l1-.28c.12,0,.21-.12.2-.24,0-.52.28-1,.23-1.5,0-.17.14-.26.29-.29l.76-.16A3.56,3.56,0,0,1,38.33,56a.45.45,0,0,1-.35.31c-.21.05-.27.18-.19.39s0,.38-.29.43a4.58,4.58,0,0,1-1.11.07C35.92,57.17,35.82,57.05,36,56.59Z" transform="translate(-22.44 -14.35)"/><path class="cls-5" d="M35.2,96.32l-1.93-.21a3.44,3.44,0,0,0,.06-.85c.66,0,1.3.16,2,.27A4.15,4.15,0,0,0,35.2,96.32Z" transform="translate(-22.44 -14.35)"/><path class="cls-5" d="M33.19,93.71a5.92,5.92,0,0,1-.07,1.11,6.75,6.75,0,0,1-1.61-.25c-.14,0-.34-.07-.34-.29s.21-.22.35-.26A10.45,10.45,0,0,1,33.19,93.71Z" transform="translate(-22.44 -14.35)"/><path class="cls-5" d="M33.11,95l.08.23C33.09,95.22,33,95.17,33.11,95Z" transform="translate(-22.44 -14.35)"/><path class="cls-5" d="M33.68,78.43l0,.23A.14.14,0,0,1,33.68,78.43Z" transform="translate(-22.44 -14.35)"/><path class="cls-5" d="M33.25,93v.15C33.18,93.05,33.18,93,33.25,93Z" transform="translate(-22.44 -14.35)"/><path class="cls-5" d="M33.2,93.63a.13.13,0,0,1,0,.06l0,0Z" transform="translate(-22.44 -14.35)"/><path class="cls-5" d="M133.23,52.32l-.06-.08Z" transform="translate(-22.44 -14.35)"/><path class="cls-2" d="M97.84,23.94h6.69c.47,0,.55.08.55.54v8.9c0,.46-.08.53-.55.53-2.88,0-5.76,0-8.64,0a3,3,0,0,0-1.93.62c-.62.45-1.29.85-1.92,1.29-.24.16-.26.07-.26-.15,0-.48,0-.95,0-1.42,0-.24,0-.34-.31-.33-1,0-.83-.08-.83-.87V24.51c0-.53,0-.57.58-.57Zm3.42,5.82a.84.84,0,0,0,.83-.8.82.82,0,1,0-1.64,0A.85.85,0,0,0,101.26,29.76ZM94.43,28.1a.83.83,0,1,0,.83.85A.87.87,0,0,0,94.43,28.1Zm4.23.83a.75.75,0,0,0-.79-.79.79.79,0,0,0-.85.79.86.86,0,0,0,.81.82A.8.8,0,0,0,98.66,28.93Z" transform="translate(-22.44 -14.35)"/><path class="cls-8" d="M81.38,23.36c0-.44,0-.87,0-1.31,0-.26.09-.26.28-.15L84,23.24c.19.1.22.19,0,.31l-2.34,1.37c-.23.13-.26,0-.26-.18C81.37,24.28,81.38,23.82,81.38,23.36Z" transform="translate(-22.44 -14.35)"/><path class="cls-8" d="M121.39,41.7q0,10.2,0,20.41a.32.32,0,0,1-.24.09l-3.81,0v-14c0-.18,0-.37,0-.55s0-.65,0-1c0-.82-.18-1-1-1H90.23a.66.66,0,0,0-.72.69c0,.44,0,.87,0,1.31q0,8.22,0,16.45c0,.55.23.76.79.76h26.18c.61,0,.85-.24.87-.85,0-.08,0-.15,0-.23.44.94.84,1.89,1.22,2.85l0,.1c.08.15.22.13.35.14h.7c.07.14.21.17.33.22a3.76,3.76,0,0,0,1.37.23c0,.08,0,.17,0,.26v17c0,.09,0,.17,0,.26l-.06.11H121a0,0,0,0,0-.07,0H109.88l-.07,0c0-.32-.13-.37-.42-.37-1.61,0-3.22,0-4.83,0q-10.28,0-20.56,0a3.34,3.34,0,0,1-2.74-1.27h26.36c.17,0,.49.13.48-.16s-.3-.13-.47-.13H81.56L81,83a2.57,2.57,0,0,1-.52-1.15h27.34c.11,0,.25,0,.26-.14s-.13-.15-.24-.15H80.47a2.08,2.08,0,0,1,.07-1.21h3c.15,0,.3,0,.39.14v.61s0,0,0,0l0,0c0,.23.08.24.24.09s.41-.59.69-.53.44.41.66.63c0,0,0,0,0,0s0,.07.08,0h0s.07,0,0-.08v-1h21.91c.16,0,.46.1.46-.09s-.3-.12-.46-.12H85.67V79h22.25c.07,0,.14,0,.14.09,0,.35.25.28.45.28h7.89c.33,0,.45-.07.45-.43,0-3.19,0-6.38,0-9.57,0-.34-.09-.42-.42-.42q-13.43,0-26.85,0c-.35,0-.44.1-.44.44,0,2.37,0,4.74,0,7.11-.15,0-.3,0-.45,0H69.9a5,5,0,0,0-1.82.36A7,7,0,0,0,66.4,78a4.44,4.44,0,0,0-1,0H51.2c-.36,0-.82-.17-1,.07s0,.7-.07,1,.1.37.37.37H65.53l0,.15a4.76,4.76,0,0,0,1,4.74c.19.23.51.33.59.64H47.32c-.37,0-.45-.09-.45-.45q0-11.07,0-22.14c1-.76,2-1.54,2.93-2.36.07-.06.12-.19.23-.14s.06.18.06.27c0,1.71,0,3.42,0,5.13,0,.38.09.48.48.48q16.61,0,33.21,0c.5,0,.52,0,.52-.54,0-6.5,0-13,0-19.52,0-.36-.1-.46-.46-.46H57.06V41.61h64.27ZM67.19,73.42H50.51c-.32,0-.47.07-.42.41s0,.43,0,.64c0,.53,0,.53.52.53H83.93c.26,0,.37-.08.36-.34a5.21,5.21,0,0,1,0-.79c0-.37-.1-.45-.46-.45Zm0-4.49H51.09c-1,0-1,0-1,1,0,.52,0,.52.53.52H83.24c1.05,0,1,0,1.06-1,0-.38-.1-.47-.48-.47Z" transform="translate(-22.44 -14.35)"/><path class="cls-8" d="M73.14,55.6a6,6,0,1,1-5.85-6.06A6,6,0,0,1,73.14,55.6Zm-7.61,2.77,4.92-2.84L65.53,52.7Z" transform="translate(-22.44 -14.35)"/><path class="cls-8" d="M46.89,59.79c0-1.38,0-2.76,0-4.14,0-2.9,0-5.79,0-8.69l1.31,0a.71.71,0,0,1,.42.14l1.49,1q0,4.8,0,9.6a.52.52,0,0,1-.34.54Z" transform="translate(-22.44 -14.35)"/><path class="cls-8" d="M37.08,36.79a1.65,1.65,0,0,1-1.64,1.68,1.69,1.69,0,0,1-1.71-1.66,1.72,1.72,0,0,1,1.65-1.69A1.67,1.67,0,0,1,37.08,36.79Z" transform="translate(-22.44 -14.35)"/><path class="cls-8" d="M44,36.8a1.66,1.66,0,0,1-1.65,1.67,1.68,1.68,0,1,1,0-3.35A1.68,1.68,0,0,1,44,36.8Z" transform="translate(-22.44 -14.35)"/><path class="cls-8" d="M47.69,36.78a1.66,1.66,0,1,1,1.66,1.69A1.63,1.63,0,0,1,47.69,36.78Z" transform="translate(-22.44 -14.35)"/><path class="cls-2" d="M106,93.93a5.27,5.27,0,0,1-3.82,1.36c-6.77,0-13.54-.06-20.3,0-6.49,0-13,0-19.47,0-.36,0-.52-.07-.47-.46s0-.6,0-.9a15.71,15.71,0,0,1,1.68,0h.18c5.33,0,10.66,0,16,0a3.14,3.14,0,0,0,2.44-1.18.48.48,0,0,0,.22-.31,2.31,2.31,0,0,0,.51-1.2L83,91a4,4,0,0,0-.07-1.19.85.85,0,0,0-.12-.38,2.46,2.46,0,0,0-.61-1.06,1.07,1.07,0,0,0-.3-.3h-.08c0-.1-.06-.15-.13-.2a3.3,3.3,0,0,0-2.12-.7H64l-.38,0c-.46,0-.92,0-1.37,0-.23,0-.3-.08-.3-.3,0-1,0-1,1-1H69l1.27,0h30.52a23.12,23.12,0,0,1,2.76.05,5.29,5.29,0,0,1,2,.91,4.73,4.73,0,0,1,1.76,2.93,5.45,5.45,0,0,1,0,1.51A5.08,5.08,0,0,1,106,93.93Z" transform="translate(-22.44 -14.35)"/><path class="cls-4" d="M103.55,85.9a23.12,23.12,0,0,0-2.76-.05H70.27l-1.27,0c-.67-.2-1.28-.57-1.93-.82-.08-.31-.4-.41-.59-.64a4.76,4.76,0,0,1-1-4.74l0-.15A12.32,12.32,0,0,1,66.4,78a7,7,0,0,1,1.68-1.16,5,5,0,0,1,1.82-.36H88.7c.15,0,.3,0,.45,0l.48,0h19.18a2.67,2.67,0,0,0,.63,0c.23-.06.39,0,.36.29a3.75,3.75,0,0,0,0,.67c0,.26-.06.36-.33.35-.46,0-.93,0-1.39,0H83.92a3.26,3.26,0,0,0-2.35.89.39.39,0,0,0-.29.31,2.57,2.57,0,0,0-.68,1.28.12.12,0,0,0-.06.14,2.08,2.08,0,0,0-.07,1.21c0,.1,0,.21,0,.29A2.57,2.57,0,0,0,81,83a.47.47,0,0,0,.22.28A3.34,3.34,0,0,0,84,84.57q10.29,0,20.56,0c1.61,0,3.22,0,4.83,0,.29,0,.45.05.42.37V85c0,.84,0,.84-.84.84h-5A.79.79,0,0,0,103.55,85.9Z" transform="translate(-22.44 -14.35)"/><path class="cls-4" d="M106,93.93a5.08,5.08,0,0,0,1.32-2.68,5.45,5.45,0,0,0,0-1.51.82.82,0,0,0,.51.07h19.26c.4,0,.51.14.58.5.2,1.19.43,2.37.65,3.56-7.32.29-14.65,0-22,.12C106.2,94,106.08,94,106,93.93Z" transform="translate(-22.44 -14.35)"/><path class="cls-8" d="M127.93,66.8l-.17,1.38c-.27,1.1-.41,2.21-.59,3.31-.42,2.75-.79,5.51-1,8.28a21.64,21.64,0,0,0,.38,4.69c.22,1.34.46,2.68.69,4,0,.11,0,.22,0,.37l-3-1.09-.17-.06c-.25-.1-.59-.12-.71-.3s.26-.39.27-.65a.1.1,0,0,0,0-.15,2.83,2.83,0,0,1,0-.29V67.42c0-.1,0-.19,0-.29a.54.54,0,0,1,.39-.07c.61,0,1.22,0,1.83,0a1.81,1.81,0,0,0,1-.2l.16-.06h.41s.08,0,.11,0Z" transform="translate(-22.44 -14.35)"/><path class="cls-5" d="M136.39,94.73A6.26,6.26,0,0,1,135,95c-1.1.1-2.19.24-3.29.25a12.06,12.06,0,0,1-.18-1.8,39.25,39.25,0,0,1,4.46.37A4.61,4.61,0,0,1,136.39,94.73Z" transform="translate(-22.44 -14.35)"/><path class="cls-5" d="M127,66.85a1.81,1.81,0,0,1-1,.2c-.61,0-1.22,0-1.83,0a.54.54,0,0,0-.39.07,4.7,4.7,0,0,0-2.11,0c-.12,0-.24.08-.28.22a3.76,3.76,0,0,1-1.37-.23c-.12,0-.26-.08-.33-.22a3.25,3.25,0,0,1,1-.06c1.6,0,3.21,0,4.81,0h.15a.87.87,0,0,0,.53,0h.72A.13.13,0,0,0,127,66.85Z" transform="translate(-22.44 -14.35)"/><path class="cls-5" d="M131.44,93a.23.23,0,0,1,0,.27A.36.36,0,0,1,131.44,93Z" transform="translate(-22.44 -14.35)"/><path class="cls-5" d="M123.77,86.59a.1.1,0,0,1,0,.15Z" transform="translate(-22.44 -14.35)"/><path class="cls-5" d="M121.32,85l.06-.11S121.41,85,121.32,85Z" transform="translate(-22.44 -14.35)"/><path class="cls-5" d="M136.44,94.82l-.05-.09Z" transform="translate(-22.44 -14.35)"/><path class="cls-5" d="M121,85a0,0,0,0,1,.07,0Z" transform="translate(-22.44 -14.35)"/><path class="cls-5" d="M109.81,85v-.08l.07,0Z" transform="translate(-22.44 -14.35)"/><path class="cls-4" d="M63.6,93.92a15.71,15.71,0,0,0-1.68,0H44.46c0-1.25,0-2.5,0-3.74,0-.35.1-.44.44-.44H63.6l0,1.21v1.63Z" transform="translate(-22.44 -14.35)"/><path class="cls-8" d="M63.63,91l0-1.21,0-1.42H77.78a6.87,6.87,0,0,1,0,1.2H63.91c-.07,0-.16,0-.17.1s.09.12.17.12H77.78a9.52,9.52,0,0,0,.09,1.1,4.85,4.85,0,0,1,.38-.44c.37-.39.36-.38.77,0,.15.13.23.38.5.34l0,0a.14.14,0,0,0,0-.06v-.89h3.42A4,4,0,0,1,83,91H63.63Z" transform="translate(-22.44 -14.35)"/><path class="cls-8" d="M63.59,87.19l.38,0H79.58a3.3,3.3,0,0,1,2.12.7c.07,0,.15.1.13.2H63.62l0-.6v-.3Z" transform="translate(-22.44 -14.35)"/><path class="cls-5" d="M40.88,86.89a6.88,6.88,0,0,1-1.3-1l-1.69-1.5a63.56,63.56,0,0,0,.54-7.7c.08.24.15.48.23.72.54,1.64,1.07,3.27,1.62,4.9a11.06,11.06,0,0,1,.33,2.06C40.71,85.23,40.79,86.06,40.88,86.89Z" transform="translate(-22.44 -14.35)"/><path class="cls-4" d="M38.8,93.16a3.67,3.67,0,0,1-1.22-2.45c0-.69.14-.87.86-.91s1.66,0,2.49,0c.24,0,.32.06.34.31.14,1.29.3,2.59.45,3.88A4.24,4.24,0,0,1,38.8,93.16Z" transform="translate(-22.44 -14.35)"/><path class="cls-5" d="M63.62,88.09h18.2c0,.07.06,0,.09,0a1.07,1.07,0,0,1,.3.3l-2.69,0s-.08-.12-.12-.12H77.91s-.08.08-.13.12H63.62Z" transform="translate(-22.44 -14.35)"/><path class="cls-5" d="M36.23,93.06a.16.16,0,0,1,0,.19A.19.19,0,0,1,36.23,93.06Z" transform="translate(-22.44 -14.35)"/><path class="cls-9" d="M63.6,87.4v.09S63.56,87.43,63.6,87.4Z" transform="translate(-22.44 -14.35)"/><path class="cls-1" d="M126.41,36.3a4.85,4.85,0,0,1-2.62,7.05c-.09-.76,0-1.52,0-2.28v-.82A1.16,1.16,0,0,0,122.5,39c-1.58,0-3.16,0-4.74,0l-.45,0A4.87,4.87,0,0,1,123.43,34c0,.15.08.21.2.28.65.42,1.25.92,1.87,1.39C125.78,35.92,126,36.24,126.41,36.3Z" transform="translate(-22.44 -14.35)"/><path class="cls-4" d="M125.52,66.83c-1.6,0-3.21,0-4.81,0a3.25,3.25,0,0,0-1,.06H119c-.13,0-.27,0-.35-.14l0-.1c-.38-1-.78-1.91-1.22-2.85-.12-.31-.24-.62-.37-.92-.25-.6-.25-.6.36-.64l3.81,0a.32.32,0,0,0,.24-.09c.16.17.37.08.57.09a8.22,8.22,0,0,0,1.11,0c.36,0,.51.13.63.43.49,1.2,1,2.4,1.51,3.6C125.31,66.43,125.42,66.63,125.52,66.83Zm-4.18-2c0-.39-.22-.72-.5-.72s-.33.17-.34.4c0,.39.24.73.53.73S121.35,65,121.34,64.78Z" transform="translate(-22.44 -14.35)"/><path class="cls-8" d="M124.88,64.89c.54-.42,1-1,1.54-1.35a5.74,5.74,0,0,1-.55,1.33c-.07.17-.32.11-.44.24s.29,0,.21.22-.32.14-.5.16A1.89,1.89,0,0,1,124.88,64.89Z" transform="translate(-22.44 -14.35)"/><path class="cls-9" d="M126.2,66.8a.87.87,0,0,1-.53,0A.7.7,0,0,1,126.2,66.8Z" transform="translate(-22.44 -14.35)"/><path class="cls-9" d="M127,66.85a.13.13,0,0,1,0,0,.21.21,0,0,1,.19,0Z" transform="translate(-22.44 -14.35)"/><path class="cls-9" d="M121.39,41.7l-.06-.08S121.4,41.65,121.39,41.7Z" transform="translate(-22.44 -14.35)"/><path class="cls-9" d="M127.63,66.78s-.07,0-.11,0Z" transform="translate(-22.44 -14.35)"/><path class="cls-5" d="M65.82,33.74s.07,0,0,.07,0,0-.06-.05Z" transform="translate(-22.44 -14.35)"/><path class="cls-5" d="M63.8,32.1l.05,0s-.05,0-.07,0Z" transform="translate(-22.44 -14.35)"/><polygon class="cls-8" points="103.98 49.19 103.99 49.16 104.01 49.17 103.98 49.19"/><path class="cls-8" d="M25,54.44c0-.41,0-.82,0-1.23s.09-.35.33-.21l2.15,1.26c.26.15.23.27,0,.41l-2.16,1.24c-.24.13-.31,0-.3-.2Z" transform="translate(-22.44 -14.35)"/><path class="cls-8" d="M143.31,71.47,140.71,73c-.21.12-.22,0-.22-.19V70.11c0-.15,0-.26.22-.16Z" transform="translate(-22.44 -14.35)"/><path class="cls-5" d="M131.75,97.81l0,0a0,0,0,0,1,0,0Z" transform="translate(-22.44 -14.35)"/><path class="cls-8" d="M101.26,29.76a.85.85,0,0,1-.81-.82.82.82,0,1,1,1.64,0A.84.84,0,0,1,101.26,29.76Z" transform="translate(-22.44 -14.35)"/><path class="cls-8" d="M94.43,28.1a.83.83,0,1,1-.83.81A.88.88,0,0,1,94.43,28.1Z" transform="translate(-22.44 -14.35)"/><path class="cls-8" d="M98.66,28.93a.8.8,0,0,1-.83.82.86.86,0,0,1-.81-.82.79.79,0,0,1,.85-.79A.75.75,0,0,1,98.66,28.93Z" transform="translate(-22.44 -14.35)"/><path class="cls-2" d="M117.35,62.25c-.61,0-.61,0-.36.64.13.3.25.61.37.92,0,.08,0,.15,0,.23,0,.61-.26.85-.87.85H90.3c-.56,0-.79-.21-.79-.76q0-8.22,0-16.45h27.8c0,.18,0,.37,0,.55ZM98,57.23c0,.55,0,1.1,0,1.65a.47.47,0,0,0,.28.48,10.24,10.24,0,0,0,4.6,1.39,10.1,10.1,0,0,0,5.73-1.4.54.54,0,0,0,.31-.53c0-.93,0-1.85,0-2.77,0-.74,0-.74.73-.93a4.67,4.67,0,0,0,.5-.14c.3-.11.4,0,.39.29,0,.8,0,1.6,0,2.4,0,.16,0,.42.27.4s.2-.24.2-.41q0-1.29,0-2.58c0-.23.06-.35.31-.4.56-.12,1.11-.28,1.67-.43.15,0,.34-.06.35-.27s-.2-.26-.36-.3l-9.28-2.46a1.1,1.1,0,0,0-.51,0l-7,1.81-2.28.59c-.16,0-.34.07-.34.29s.2.21.35.27l.1,0,3.72,1a.35.35,0,0,1,.31.39C98,56.11,98,56.67,98,57.23Z" transform="translate(-22.44 -14.35)"/><path class="cls-1" d="M81.28,79a.39.39,0,0,1,.29-.31c.14.15.33.09.5.09h25c1,0,1,0,1-1,.46,0,.93,0,1.39,0,.27,0,.35-.09.33-.35a3.75,3.75,0,0,1,0-.67c0-.3-.13-.35-.36-.29a2.67,2.67,0,0,1-.63,0H89.63l-.48,0c0-2.37,0-4.74,0-7.11,0-.34.09-.44.44-.44q13.42,0,26.85,0c.33,0,.42.08.42.42,0,3.19,0,6.38,0,9.57,0,.36-.12.43-.45.43h-7.89c-.2,0-.45.07-.45-.28,0-.07-.07-.09-.14-.09H85.67a5.12,5.12,0,0,0-1.61-.07c-.11,0-.06.14-.1.21-.09-.16-.24-.14-.38-.14Z" transform="translate(-22.44 -14.35)"/><path class="cls-3" d="M117.32,47.67H89.52c0-.44,0-.87,0-1.31a.66.66,0,0,1,.72-.69h26.09c.83,0,1,.19,1,1C117.33,47,117.32,47.34,117.32,47.67Z" transform="translate(-22.44 -14.35)"/><path class="cls-10" d="M67.19,73.42H83.83c.36,0,.5.08.46.45a5.21,5.21,0,0,0,0,.79c0,.26-.1.36-.36.34H50.61c-.52,0-.52,0-.52-.53,0-.21,0-.43,0-.64s.1-.41.42-.41Z" transform="translate(-22.44 -14.35)"/><path class="cls-10" d="M67.17,68.93H83.82c.38,0,.49.09.48.47,0,1,0,1-1.06,1H50.62c-.53,0-.53,0-.53-.52,0-1,0-1,1-1Z" transform="translate(-22.44 -14.35)"/><path class="cls-10" d="M66.4,78a12.32,12.32,0,0,0-.87,1.49H50.46c-.27,0-.39-.09-.37-.37s-.15-.81.07-1,.68-.07,1-.07H65.37A4.44,4.44,0,0,1,66.4,78Z" transform="translate(-22.44 -14.35)"/><path class="cls-5" d="M80.52,81.87c-.09-.08-.06-.19,0-.29h27.41c.11,0,.25,0,.24.15s-.15.14-.26.14H80.52Z" transform="translate(-22.44 -14.35)"/><path class="cls-5" d="M81.26,83.3A.47.47,0,0,1,81,83l.52,0h26.07c.17,0,.47-.1.47.13s-.31.16-.48.16Z" transform="translate(-22.44 -14.35)"/><path class="cls-5" d="M85.67,80.15h21.91c.16,0,.46-.13.46.12s-.3.09-.46.09H85.67Z" transform="translate(-22.44 -14.35)"/><path class="cls-6" d="M85.67,80.15v1.2l0,.08h-.08s0,0,0,0c-.22-.22-.41-.57-.66-.63s-.46.34-.69.53-.24.14-.24-.09v-.68a.67.67,0,0,0,0-.37V79.1c0-.07,0-.22.1-.21a5.12,5.12,0,0,1,1.61.07Z" transform="translate(-22.44 -14.35)"/><path class="cls-5" d="M84,80.15a.67.67,0,0,1,0,.37c-.09-.16-.24-.14-.39-.14h-3a.12.12,0,0,1,.06-.14,1.06,1.06,0,0,1,.47-.08Z" transform="translate(-22.44 -14.35)"/><path class="cls-5" d="M85.64,81.43l0-.08C85.71,81.4,85.69,81.42,85.64,81.43Z" transform="translate(-22.44 -14.35)"/><path class="cls-5" d="M84,81.13v.07l0,0S84,81.13,84,81.13Z" transform="translate(-22.44 -14.35)"/><path class="cls-5" d="M85.56,81.42h.08C85.61,81.49,85.58,81.48,85.56,81.42Z" transform="translate(-22.44 -14.35)"/><path class="cls-5" d="M118.58,66.66l0,.1Z" transform="translate(-22.44 -14.35)"/><path class="cls-4" d="M65.53,58.37V52.7l4.92,2.83Z" transform="translate(-22.44 -14.35)"/><path class="cls-8" d="M63.63,92.43V91.22H82.94a2.31,2.31,0,0,1-.51,1.2Z" transform="translate(-22.44 -14.35)"/><path class="cls-8" d="M63.6,93.92l0-1.28c.3,0,.6.08.9.08,5.36,0,10.71,0,16.07,0a4.93,4.93,0,0,0,1.15-.06.44.44,0,0,1,.46.08,3.14,3.14,0,0,1-2.44,1.18c-5.33,0-10.66,0-16,0Z" transform="translate(-22.44 -14.35)"/><path class="cls-5" d="M82.21,92.74a.44.44,0,0,0-.46-.08,4.93,4.93,0,0,1-1.15.06c-5.36,0-10.71,0-16.07,0-.3,0-.6,0-.9-.08v-.21h18.8A.48.48,0,0,1,82.21,92.74Z" transform="translate(-22.44 -14.35)"/><path class="cls-5" d="M82.94,91.23H63.63V91H83Z" transform="translate(-22.44 -14.35)"/><path class="cls-8" d="M79.52,88.39l2.69,0a2.46,2.46,0,0,1,.61,1.06c-.09,0-.14.1-.26.1-.87,0-1.74,0-2.61,0a.64.64,0,0,1-.43-.08Z" transform="translate(-22.44 -14.35)"/><path class="cls-5" d="M79.52,89.43a.64.64,0,0,0,.43.08c.87,0,1.74,0,2.61,0,.12,0,.17-.07.26-.1a.85.85,0,0,1,.12.38H79.52Z" transform="translate(-22.44 -14.35)"/><path class="cls-8" d="M81.91,88.07s0,.08-.09,0Z" transform="translate(-22.44 -14.35)"/><path class="cls-8" d="M108.08,77.76c0,1,0,1-1,1h-25c-.17,0-.36.06-.5-.09a3.26,3.26,0,0,1,2.35-.89h24.16Z" transform="translate(-22.44 -14.35)"/><path class="cls-8" d="M84,80.15H81.07a1.06,1.06,0,0,0-.47.08A2.57,2.57,0,0,1,81.28,79h2.3c.14,0,.29,0,.38.14Z" transform="translate(-22.44 -14.35)"/><path class="cls-6" d="M79.52,89.43v1.35c-.27,0-.35-.21-.5-.34-.41-.36-.4-.37-.77,0a4.85,4.85,0,0,0-.38.44,9.52,9.52,0,0,1-.09-1.1v-.22a6.87,6.87,0,0,0,0-1.2s.09-.11.13-.12H79.4s.08.07.12.12Z" transform="translate(-22.44 -14.35)"/><path class="cls-5" d="M77.78,89.58v.22H63.91c-.08,0-.19,0-.17-.12s.1-.09.17-.1H77.78Z" transform="translate(-22.44 -14.35)"/><path class="cls-5" d="M79.52,90.78V90.7a.14.14,0,0,1,0,.06Z" transform="translate(-22.44 -14.35)"/><path class="cls-5" d="M121.34,64.78c0,.22,0,.41-.31.41s-.54-.34-.53-.73c0-.23.08-.4.34-.4S121.34,64.39,121.34,64.78Z" transform="translate(-22.44 -14.35)"/><path class="cls-8" d="M98,57.23c0-.56,0-1.12,0-1.68a.35.35,0,0,0-.31-.39l-3.72-1-.1,0c-.15-.06-.35,0-.35-.27s.18-.25.34-.29L96.12,53l7-1.81a1.1,1.1,0,0,1,.51,0L113,53.68c.16,0,.37.06.36.3s-.2.23-.35.27c-.56.15-1.11.31-1.67.43-.25,0-.31.17-.31.4q0,1.29,0,2.58c0,.17.05.39-.2.41s-.27-.24-.27-.4c0-.8,0-1.6,0-2.4,0-.32-.09-.4-.39-.29a4.67,4.67,0,0,1-.5.14c-.74.19-.73.19-.73.93,0,.92,0,1.84,0,2.77a.54.54,0,0,1-.31.53,10.1,10.1,0,0,1-5.73,1.4,10.24,10.24,0,0,1-4.6-1.39.47.47,0,0,1-.28-.48C98,58.33,98,57.78,98,57.23Zm-3.14-3.39a.38.38,0,0,0,.31.16L103,56.07a1.32,1.32,0,0,0,.76.06c2.27-.59,4.54-1.15,6.8-1.75A7.51,7.51,0,0,0,112,54l-.18-.07c-2.65-.7-5.29-1.39-7.94-2.11a1.92,1.92,0,0,0-1,0c-1.4.38-2.8.73-4.19,1.08Zm3.6,3.32h0c0,.47,0,1,0,1.42a.44.44,0,0,0,.27.47,9.63,9.63,0,0,0,9.47,0,.39.39,0,0,0,.24-.41q0-1.42,0-2.85c0-.26-.05-.35-.34-.27-1.42.38-2.85.73-4.27,1.1a1.25,1.25,0,0,1-.69,0c-1.42-.38-2.84-.74-4.26-1.13-.31-.08-.45-.08-.42.31S98.43,56.7,98.43,57.16Z" transform="translate(-22.44 -14.35)"/><path class="cls-2" d="M94.83,53.84l3.86-1c1.39-.35,2.79-.7,4.19-1.08a1.92,1.92,0,0,1,1,0c2.65.72,5.29,1.41,7.94,2.11L112,54a7.51,7.51,0,0,1-1.49.43c-2.26.6-4.53,1.16-6.8,1.75a1.32,1.32,0,0,1-.76-.06L95.14,54A.38.38,0,0,1,94.83,53.84Z" transform="translate(-22.44 -14.35)"/><path class="cls-2" d="M98.43,57.16c0-.46,0-.92,0-1.38s.11-.39.42-.31c1.42.39,2.84.75,4.26,1.13a1.25,1.25,0,0,0,.69,0c1.42-.37,2.85-.72,4.27-1.1.29-.08.34,0,.34.27q0,1.42,0,2.85a.39.39,0,0,1-.24.41,9.63,9.63,0,0,1-9.47,0,.44.44,0,0,1-.27-.47c0-.47,0-.95,0-1.42Z" transform="translate(-22.44 -14.35)"/>
        </svg>