<svg width="157" height="151" viewBox="0 0 157 151" fill="none" xmlns="http://www.w3.org/2000/svg">
<g clip-path="url(#clip0_3_2)">
<path d="M49.8941 94.1062C47.5657 96.5871 45.4036 98.9025 43.4078 101.218C42.41 102.541 41.2458 103.037 39.4163 103.037C27.1091 103.037 14.8019 103.037 2.49471 103.037C0.498944 103.037 3.56138e-06 102.376 3.56138e-06 100.556C0.166317 94.9332 0.166317 89.4753 3.56138e-06 83.8521C3.56138e-06 81.3713 0.332631 79.0558 1.82945 76.9058C2.32839 76.2442 2.99365 75.2519 1.1642 75.0865C0.166317 75.0865 3.56138e-06 74.2596 3.56138e-06 73.4326C3.56138e-06 65.3286 -0.16631 57.3899 3.56138e-06 49.2859C3.56138e-06 46.6396 2.16208 44.9857 3.6589 42.8357C8.31568 35.724 13.1388 28.7776 17.7956 21.8313C18.6271 20.5082 19.625 20.012 21.1218 20.1774C32.0985 20.1774 43.0752 20.1774 54.2182 20.1774C56.214 20.1774 56.8792 20.5082 56.8792 22.6583C56.7129 27.2891 56.8792 31.92 56.7129 36.5509C56.7129 38.5356 57.2119 39.0317 59.2076 39.0317C73.8432 38.8664 88.4788 39.0317 103.114 39.0317C107.272 39.0317 106.773 38.701 106.773 42.6703C106.773 45.9781 106.94 49.1205 106.773 52.4282C106.607 54.4129 107.272 55.0745 109.434 55.0745C124.236 54.9091 139.204 55.0745 154.006 54.9091C156.168 54.9091 156.834 55.4052 156.667 57.5553C156.501 63.5093 156.335 69.6287 156.667 75.5827C156.834 79.7174 155.337 83.5213 154.339 87.3253C154.173 88.3176 153.341 88.3176 152.51 88.3176C150.347 88.3176 148.185 88.483 146.023 88.3176C144.028 88.1522 143.362 88.6484 143.362 90.7985C143.529 105.353 143.362 119.741 143.529 134.296C143.529 138.265 141.865 141.904 141.034 145.708C140.868 146.534 140.036 146.534 139.371 146.534C131.221 146.534 123.072 146.534 114.923 146.534C113.758 146.534 113.26 146.038 113.26 144.881C113.26 139.257 113.426 133.8 113.426 128.176C113.426 122.388 113.426 116.599 113.426 110.81C113.426 104.195 113.426 97.5794 113.26 90.9638C113.26 89.9715 113.925 88.483 112.594 88.3176C110.765 87.9868 108.935 87.8214 107.106 88.483C106.274 88.8138 106.773 89.8061 106.773 90.6331C106.773 100.391 106.773 110.149 106.773 119.907C106.773 123.38 104.944 126.357 104.445 129.665C104.445 130.492 103.78 130.657 103.114 130.657C94.965 130.657 86.6494 130.657 78.5 130.657C77.1695 130.657 76.5042 129.996 76.6705 128.672C76.6705 127.019 76.6705 125.53 76.6705 123.876C76.8369 122.388 76.1716 121.892 74.6748 122.057C72.679 122.222 70.8496 122.057 68.8538 122.057C67.5233 122.057 66.5254 121.561 65.8602 120.403C61.0371 113.126 56.214 105.849 51.2246 98.5717C50.0604 97.2486 50.7256 95.7601 49.8941 94.1062ZM57.2119 64.9978C57.2119 71.448 57.2119 77.8981 57.2119 84.3483C57.2119 85.6714 57.5445 86.6637 58.2097 87.6561C62.7002 94.2716 67.1907 100.887 71.6811 107.503C72.3464 108.495 73.178 108.991 74.5085 108.991C77.0032 108.826 79.6642 108.991 82.1589 108.991C83.3231 108.991 83.822 109.322 83.822 110.645C83.822 112.464 83.822 114.284 83.822 116.103C83.822 117.426 84.321 117.757 85.6515 117.757C90.8072 117.757 95.7966 117.757 100.952 117.757C102.117 117.757 102.615 117.426 102.615 116.268C102.615 107.503 102.615 98.9025 102.615 90.1369C102.615 89.6407 102.782 88.6484 101.95 88.6484C100.287 88.483 100.62 87.3253 100.62 86.333C100.62 79.8828 100.62 73.598 100.62 67.1478C100.62 65.494 100.121 64.8324 98.4576 64.9978C94.2998 65.1632 90.3083 65.1632 86.1504 64.9978C84.4873 64.9978 83.822 65.494 83.9883 67.1478C84.1547 74.5903 83.9883 81.8675 83.9883 89.31C83.9883 93.7754 84.6536 93.1139 79.8305 93.2793C77.6684 93.2793 77.0032 92.7831 77.0032 90.6331C77.1695 80.5443 77.1695 70.2902 77.0032 60.2015C77.0032 58.0515 77.6684 57.5553 79.8305 57.5553C86.6494 57.7207 93.3019 57.5553 100.121 57.5553C102.117 57.5553 102.948 57.0591 102.782 54.9091C102.615 51.7667 102.615 48.7897 102.782 45.6473C102.782 43.828 102.283 43.3319 100.453 43.3319C86.8157 43.3319 73.3443 43.3319 59.7066 43.3319C57.8771 43.3319 57.3782 43.828 57.3782 45.6473C57.2119 52.0975 57.2119 58.5476 57.2119 64.9978ZM24.4481 89.9715C29.2712 89.9715 34.2606 89.8061 39.0837 89.9715C41.0795 89.9715 42.41 89.4753 43.5742 87.9868C45.071 86.0022 46.9004 84.3483 48.5636 82.6944C49.7278 81.5367 50.393 80.2136 50.2267 78.3943C50.2267 70.1248 50.0604 61.8554 50.2267 53.586C50.2267 51.7667 49.7278 51.2705 47.8983 51.2705C41.0795 51.4359 34.4269 51.2705 27.6081 51.2705C26.1112 51.2705 25.2797 50.9397 25.446 49.2859C25.6123 47.1358 25.6123 44.9857 25.446 42.6703C25.2797 40.851 25.7786 40.1895 27.7744 40.1895C35.0922 40.3549 42.41 40.1895 49.5614 40.3549C51.5572 40.3549 52.0561 39.6933 52.0561 38.0394C52.0561 34.0701 51.8898 30.2661 52.0561 26.2968C52.0561 24.4775 51.3909 24.1468 49.7278 24.1468C40.9131 24.1468 32.0985 24.3121 23.2839 24.1468C21.6208 24.1468 20.7892 24.8083 19.9576 25.966C16.2987 31.5893 12.6398 37.3779 8.64831 43.0011C6.98517 45.3165 6.1536 47.632 6.31992 50.4436C6.48623 52.759 6.31992 55.0745 6.31992 57.3899C6.31992 61.69 6.31992 61.69 10.8104 61.69C18.1282 61.69 25.446 61.69 32.5975 61.69C34.0943 61.69 35.4248 61.8554 35.2585 64.0055C35.0922 66.8171 35.0922 69.7941 35.2585 72.6057C35.4248 74.425 34.5932 74.9211 32.7638 74.9211C24.6144 74.9211 16.465 74.9211 8.31568 74.9211C6.65255 74.9211 6.15361 75.4173 6.15361 76.9058C6.31992 80.5443 6.31992 84.1829 6.15361 87.6561C6.15361 89.4753 6.65255 89.8061 8.48199 89.8061C14.1367 89.9715 19.2924 89.9715 24.4481 89.9715ZM139.371 104.526C139.371 95.5947 139.371 86.8291 139.371 77.8981C139.371 75.7481 140.036 75.0865 142.198 75.2519C145.025 75.4173 147.853 75.2519 150.846 75.2519C152.177 75.2519 152.842 75.0865 152.842 73.598C152.676 69.4633 152.842 65.1632 152.842 61.0285C152.842 59.8707 152.51 59.3746 151.345 59.3746C137.375 59.3746 123.238 59.3746 109.268 59.3746C107.937 59.3746 107.439 59.8707 107.439 61.0285C107.439 65.1632 107.439 69.4633 107.439 73.598C107.439 74.9211 108.104 75.2519 109.268 75.0865C111.929 75.0865 114.756 75.0865 117.417 75.0865C120.577 75.0865 120.577 75.0865 120.577 78.2289C120.577 95.7601 120.577 113.291 120.577 130.823C120.577 133.138 121.243 133.8 123.571 133.634C128.061 133.469 132.552 133.469 137.042 133.634C139.038 133.634 139.537 132.973 139.537 131.153C139.204 122.388 139.371 113.457 139.371 104.526Z" fill="#3F71B7"/>
<path d="M147.187 49.2859C146.855 49.4513 146.689 49.4513 146.689 49.4513C141.865 50.2782 139.204 48.9551 136.71 44.1588C126.066 23.6506 108.769 11.2464 85.3189 7.77328C72.3464 5.78861 59.8729 7.60789 48.0646 13.0657C45.9025 14.0581 43.9068 14.5542 41.5784 14.3888C38.4184 14.2234 35.2585 14.3888 32.0985 14.0581C51.7235 0.661559 73.178 -3.47316 96.1292 2.977C121.243 9.92333 137.708 25.966 147.187 49.2859Z" fill="#3F71B7"/>
<path d="M9.14722 111.472C14.3029 110.645 17.4629 111.803 20.7892 116.268C32.4311 132.146 48.7298 141.573 68.8538 143.558C82.3252 144.881 94.965 142.565 106.94 136.446C108.27 135.784 108.603 135.784 108.603 137.438C108.769 143.723 108.769 143.723 102.449 146.038C67.5233 159.269 28.107 145.377 9.31353 112.464C9.47984 112.134 9.31353 111.968 9.14722 111.472Z" fill="#3F71B7"/>
<path d="M57.2118 64.9978C57.2118 58.5476 57.2118 52.0975 57.2118 45.6473C57.2118 43.828 57.7108 43.3319 59.5402 43.3319C73.1779 43.3319 86.6493 43.3319 100.287 43.3319C102.117 43.3319 102.615 43.828 102.615 45.6473C102.449 48.7897 102.449 51.7667 102.615 54.9091C102.782 56.8938 101.95 57.5553 99.9544 57.5553C93.1356 57.5553 86.483 57.5553 79.6642 57.5553C77.5021 57.5553 76.8368 58.0515 76.8368 60.2015C77.0032 70.2903 77.0032 80.5444 76.8368 90.6331C76.8368 92.7831 77.5021 93.2793 79.6642 93.2793C84.4873 93.1139 83.6557 93.7755 83.822 89.31C83.822 81.8675 83.822 74.5904 83.822 67.1479C83.822 65.494 84.321 64.9978 85.9841 64.9978C90.1419 65.1632 94.1335 65.1632 98.2913 64.9978C100.121 64.9978 100.453 65.6594 100.453 67.1479C100.453 73.598 100.453 79.8828 100.453 86.333C100.453 87.3253 100.121 88.483 101.784 88.6484C102.615 88.6484 102.449 89.6407 102.449 90.1369C102.449 98.9025 102.449 107.503 102.449 116.268C102.449 117.426 101.95 117.757 100.786 117.757C95.6303 117.757 90.6409 117.757 85.4852 117.757C84.1546 117.757 83.6557 117.426 83.6557 116.103C83.822 114.284 83.6557 112.464 83.6557 110.645C83.6557 109.487 83.1568 108.991 81.9926 108.991C79.4979 108.991 76.8368 108.991 74.3421 108.991C73.1779 109.157 72.3464 108.66 71.5148 107.503C67.0243 100.887 62.5339 94.2716 58.0434 87.6561C57.3782 86.6637 57.0455 85.506 57.0455 84.3483C57.2118 77.8981 57.2118 71.448 57.2118 64.9978Z" fill="#FEFEFE"/>
<path d="M24.4481 89.9715C19.2923 89.9715 14.1366 89.9715 8.8146 89.9715C7.15146 89.9715 6.48621 89.4754 6.48621 87.8215C6.65252 84.1829 6.65252 80.5444 6.48621 77.0712C6.48621 75.4173 7.15146 75.0865 8.64828 75.0865C16.7976 75.0865 24.947 75.0865 33.0964 75.0865C34.9258 75.0865 35.5911 74.7558 35.5911 72.7711C35.4248 69.9595 35.4248 66.9825 35.5911 64.1709C35.7574 62.0208 34.4269 61.8554 32.9301 61.8554C25.6123 61.8554 18.2945 61.8554 11.143 61.8554C6.65252 61.8554 6.65252 61.8554 6.65252 57.5553C6.65252 55.2399 6.81883 52.9244 6.65252 50.609C6.31989 47.7974 7.31777 45.4819 8.98091 43.1665C12.8061 37.5433 16.465 31.9201 20.2902 26.1314C21.1218 24.9737 21.9534 24.3122 23.6165 24.3122C32.4311 24.4776 41.2457 24.3122 50.0604 24.3122C51.7235 24.3122 52.3887 24.6429 52.3887 26.4622C52.2224 30.4316 52.3887 34.2355 52.3887 38.2048C52.3887 39.8587 51.8898 40.5203 49.894 40.5203C42.5762 40.3549 35.2584 40.5203 28.107 40.3549C26.1112 40.3549 25.6123 41.0164 25.7786 42.8357C25.9449 44.9858 25.9449 47.1358 25.7786 49.4513C25.6123 51.1052 26.2775 51.4359 27.9407 51.4359C34.7595 51.4359 41.4121 51.4359 48.2309 51.4359C50.0604 51.4359 50.5593 51.9321 50.5593 53.7514C50.393 62.0208 50.5593 70.2903 50.5593 78.5597C50.5593 80.2136 50.0604 81.5367 48.8962 82.8598C47.233 84.6791 45.4036 86.333 43.9068 88.1522C42.7426 89.6407 41.4121 90.3023 39.4163 90.1369C34.2606 89.8061 29.4375 89.9715 24.4481 89.9715Z" fill="#FBFBFC"/>
<path d="M139.371 104.526C139.371 113.457 139.371 122.388 139.371 131.319C139.371 133.138 138.872 133.8 136.876 133.8C132.386 133.634 127.895 133.634 123.405 133.8C121.076 133.965 120.411 133.303 120.411 130.988C120.577 113.457 120.411 95.9255 120.411 78.3943C120.411 75.2519 120.411 75.2519 117.251 75.2519C114.59 75.2519 111.763 75.2519 109.102 75.2519C107.937 75.2519 107.272 75.0865 107.272 73.7634C107.272 69.6287 107.272 65.3286 107.272 61.1939C107.272 59.8708 107.771 59.54 109.102 59.54C123.072 59.54 137.209 59.54 151.179 59.54C152.51 59.54 152.676 60.0361 152.676 61.1939C152.676 65.3286 152.676 69.6287 152.676 73.7634C152.676 75.2519 152.011 75.4173 150.68 75.4173C147.853 75.4173 144.859 75.5827 142.032 75.4173C139.87 75.2519 139.204 75.9135 139.204 78.0635C139.371 86.6637 139.371 95.5947 139.371 104.526Z" fill="#FEFEFE"/>
</g>
<defs>
<clipPath id="clip0_3_2">
<rect width="157" height="151" fill="white"/>
</clipPath>
</defs>
</svg>
